Coordinates
version=1
nRows=16
nColumns=36
inDegrees=yes

Units are S.I. units (second, meters, Newtons, ...)
If the header above contains a line with 'inDegrees', this indicates whether rotational values are in degrees (yes) or radians (no).

endheader
time	pelvis_tilt	pelvis_list	pelvis_rotation	pelvis_tx	pelvis_ty	pelvis_tz	hip_flexion_r	hip_adduction_r	hip_rotation_r	knee_angle_r	knee_angle_r_beta	ankle_angle_r	subtalar_angle_r	mtp_angle_r	hip_flexion_l	hip_adduction_l	hip_rotation_l	knee_angle_l	knee_angle_l_beta	ankle_angle_l	subtalar_angle_l	mtp_angle_l	lumbar_extension	lumbar_bending	lumbar_rotation	arm_flex_r	arm_add_r	arm_rot_r	elbow_flex_r	pro_sup_r	arm_flex_l	arm_add_l	arm_rot_l	elbow_flex_l	pro_sup_l
      6.70000000	     -6.27227671	     -2.83873472	     -9.77792489	      0.66839943	      0.83724572	      0.10891654	     35.23800632	     12.31194014	     -0.79959319	     61.68157076	      1.07654650	     34.90662121	     -7.89989972	     -7.49999987	     62.00788071	    -11.54517627	      3.19472144	     29.95037576	      0.52273267	     -4.62121567	     -6.12134548	     -7.49999987	    -20.53303093	      9.70263200	      6.23112605	     52.26894961	     -3.43369325	     73.66806938	    112.94500219	     91.37061878	     41.26881176	      4.34257127	     58.34462038	    118.84361604	     98.66694727
      6.71666670	     -6.17666008	     -2.44908302	     -9.60519730	      0.66886324	      0.84046107	      0.10935662	     34.25844132	     11.94572567	     -0.42642977	     60.29882739	      1.05241307	     34.60855499	     -8.06793406	     -7.49999987	     61.11305676	    -11.25236540	      2.89243845	     30.15306713	      0.52627030	     -3.92324999	     -6.29433915	     -7.49999987	    -20.36418830	      9.19202307	      6.15662966	     52.17149892	     -3.27013463	     73.22739741	    113.61709166	     92.01829807	     42.04245716	      4.06160594	     58.90430994	    119.38212017	     99.55318177
      6.73333330	     -6.13439364	     -2.08801264	     -9.29122281	      0.66842464	      0.84383365	      0.10889957	     33.35978262	     11.49980626	     -0.26092742	     58.92718807	      1.02847345	     34.49327387	     -7.94773481	     -7.49999987	     60.46075159	    -10.91829329	      2.72693725	     30.55766284	      0.53333183	     -3.67164835	     -6.63200719	     -7.49999987	    -19.58218182	      8.65430737	      5.81010330	     51.50092155	     -2.98112160	     71.98266216	    113.92082199	     92.34427594	     42.23923324	      4.25825451	     58.00634302	    119.96690031	     99.96781006
      6.75000000	     -6.05454929	     -1.48488507	     -8.98003529	      0.66323695	      0.85472600	      0.10563561	     32.44944158	     10.72866194	      0.10756543	     57.11290349	      0.99680821	     33.48012973	     -8.64934836	     -7.49999987	     59.51731380	    -10.38500217	      2.20954073	     31.06929892	      0.54226156	     -3.85699540	     -7.21772210	     -7.49999987	    -19.56036695	      8.00718805	      5.36987971	     51.94255934	     -2.92229422	     71.75121194	    113.62707494	     92.52629920	     43.42534571	      4.45942460	     57.79986839	    119.95107874	    100.15714646
      6.76666670	     -5.32118084	     -0.91669219	     -8.91870082	      0.66991350	      0.86705055	      0.10402545	     30.41911459	      9.87665715	      0.76190370	     54.56080355	      0.95226566	     32.10587119	     -8.78592056	     -7.49999987	     57.14010221	     -9.86633522	      1.66933443	     30.77118953	      0.53705857	     -3.82563094	     -7.05897502	     -7.49999987	    -19.84958947	      7.31343928	      4.66406208	     51.10823542	     -2.72389957	     71.23894585	    112.98143410	     92.75774993	     43.33494093	      4.49805993	     57.85908892	    119.18964515	    100.47211389
      6.78333330	     -5.15071422	     -0.53544933	     -8.59285334	      0.66280148	      0.87140355	      0.10532488	     29.65884094	      9.22617593	      0.95970193	     52.53237341	      0.91686288	     30.16505165	     -8.84953775	     -7.49999987	     55.86695899	     -9.57112072	      1.43113525	     30.76796846	      0.53700235	     -4.22121342	     -6.64824305	     -7.49999987	    -19.62278567	      6.79205340	      4.46128054	     51.07358389	     -2.37140494	     70.79418389	    113.19876113	     92.84624532	     43.77967738	      4.04632818	     57.71366887	    118.82298347	    100.59228444
      6.80000000	     -4.30895550	     -0.22315967	     -8.36403182	      0.66238693	      0.88040858	      0.10563728	     28.23902019	      8.72862666	      1.26681744	     50.58129979	      0.88281022	     28.17824065	     -9.72896726	     -7.49999987	     53.71189986	     -9.32428387	      0.87070995	     30.62556579	      0.53451696	     -4.44815327	     -6.05413222	     -7.49999987	    -20.09986238	      6.10065138	      4.29129795	     51.51578189	     -1.98181728	     69.90771263	    112.98621282	     92.84207730	     45.03551160	      3.68890630	     57.32158657	    118.21853419	    100.53239159
      6.81666670	     -4.12939648	      0.07138438	     -8.13061150	      0.66250985	      0.88379561	      0.10569909	     28.00552676	      8.21495878	      1.28908509	     49.62372643	      0.86609741	     26.84710712	     -9.67977904	     -7.49999987	     52.57288274	     -9.18264762	      0.65267984	     31.11246845	      0.54301501	     -4.25831602	     -5.45191694	     -7.49999987	    -19.83937187	      5.57895581	      4.27145693	     51.96137687	     -1.76510487	     69.64370725	    113.61394197	     92.96723835	     45.90556773	      4.22281181	     57.37472690	    119.14909081	    100.43496685
      6.83333330	     -4.43948751	      0.59511487	     -7.75290369	      0.66238291	      0.88919185	      0.10528137	     28.14214631	      7.50772097	      1.34136494	     48.54026832	      0.84718750	     25.88795340	     -9.48931947	     -7.49999987	     52.04410472	     -8.91011487	      0.37211103	     32.05698651	      0.55949996	     -4.48313932	     -5.70505734	     -7.49999987	    -19.29579258	      4.80896993	      3.62830486	     51.89461879	     -1.72914942	     69.65097506	    113.65546872	     92.91549802	     46.46022076	      4.58441977	     57.51689584	    119.37830723	    100.29220698
      6.85000000	     -4.65012214	      1.49324596	     -7.44695528	      0.66946717	      0.89584022	      0.10337964	     27.61628493	      6.42800690	      1.79308156	     47.09059685	      0.82188596	     24.88556381	     -9.57995724	     -7.49999987	     51.05600141	     -8.27889318	     -0.20752414	     32.96456092	      0.57534012	     -4.92703612	     -6.86809461	     -7.49999987	    -18.53142013	      3.65364331	      3.13519149	     51.06611310	     -1.38647963	     69.00755458	    114.31893315	     92.98055234	     46.54083791	      4.11373138	     58.29761977	    119.59824763	    100.27944320
      6.86666670	     -4.45576796	      2.40929709	     -7.01290598	      0.66854704	      0.90985016	      0.10308443	     26.33007294	      5.14043330	      2.11608174	     44.98128064	      0.78507145	     23.24100120	     -9.39412770	     -7.49999987	     49.40118438	     -7.46245133	     -1.08050477	     33.62904131	      0.58693750	     -5.46127318	     -7.48508238	     -7.49999987	    -18.26710558	      2.47302161	      2.71818246	     50.72671142	     -1.44690744	     68.72898652	    114.24759987	     92.69638604	     46.87891249	      3.70916765	     58.67951446	    118.83122570	     99.87252861
      6.88333330	     -3.97444828	      3.27487279	     -6.67973351	      0.66840474	      0.92067076	      0.10330808	     24.35330511	      3.96057255	      2.37843925	     42.37682857	      0.73961519	     21.33595180	     -9.42439666	     -7.49999987	     47.11625936	     -6.66367339	     -1.92479468	     33.93445914	      0.59226804	     -6.27269385	     -7.86865704	     -7.49999987	    -18.29803849	      1.17242599	      2.41286264	     50.55827811	     -1.72554959	     68.50448662	    113.87101451	     92.65644335	     47.72792395	      3.32660287	     58.75399372	    118.10972992	     99.72070388
      6.90000000	     -3.88776866	      4.13353548	     -6.19312504	      0.66868192	      0.92376287	      0.10352005	     23.28836874	      2.83497699	      2.44331202	     40.36845652	      0.70456248	     19.85284895	     -9.28002168	     -7.49999987	     46.00637630	     -5.92483581	     -2.06744912	     35.39441583	      0.61774909	     -5.80169559	     -8.48924779	     -7.49999987	    -18.20434784	     -0.04146390	      1.98183862	     50.43900203	     -1.47923433	     68.41530533	    114.42912348	     92.64727214	     48.83416132	      3.59486898	     59.24373343	    118.46960260	     99.42025798
      6.91666670	     -4.01720225	      4.82585555	     -5.96332873	      0.66826034	      0.92658075	      0.10316314	     22.13391332	      2.00399394	      2.53446779	     37.76836953	      0.65918240	     18.93665149	     -8.93543895	     -7.49999987	     45.31635325	     -5.35716894	     -2.11275070	     37.02633063	      0.64623138	     -4.79630053	     -9.14474234	     -7.49999987	    -17.89856082	     -0.95213821	      2.09392405	     50.84777168	     -1.27108070	     67.87031597	    114.94654990	     92.84875457	     49.51890366	      3.90556438	     59.77599315	    118.94082499	     99.42165828
      6.93333330	     -4.04628564	      5.49677971	     -5.66057810	      0.66767593	      0.93243845	      0.10323386	     20.86586149	      1.25184485	      2.64968382	     35.10000051	      0.61261058	     17.72544982	     -9.11671767	     -7.49999987	     44.59453422	     -4.98525373	     -2.34679515	     38.82540220	      0.67763110	     -5.01840517	    -10.63007099	     -7.49999987	    -17.62734159	     -1.89653987	      2.20010612	     51.37419348	     -1.02315006	     66.99044235	    115.47909351	     92.95504461	     50.72071455	      3.74679310	     60.25029081	    118.96200138	     99.31004929
      6.95000000	     -4.20790856	      6.18950062	     -5.81020839	      0.66869026	      0.93841996	      0.09771513	     19.78697096	      0.33697937	      2.81212210	     32.40764868	      0.56562017	     16.49879500	     -8.59618226	     -7.49999987	     43.84769950	     -4.48654710	     -2.69987218	     40.38182826	      0.70479586	     -4.77359409	    -11.51665107	     -7.49999987	    -17.27473272	     -2.67982711	      2.41185413	     52.16231878	     -1.25136725	     66.93316079	    116.09063063	     93.04898429	     51.28124826	      3.60760591	     60.72133501	    118.98182404	     99.25039040
